<svg width="68" height="92" viewBox="0 0 68 92" fill="none" xmlns="http://www.w3.org/2000/svg">
<g clip-path="url(#clip0_0_97)">
<path d="M67.3306 28.9792L67.1226 71.7033L67.0879 79.9669C67.0532 86.5332 60.7413 91.8309 52.9728 91.7966L14.1649 91.6252C6.41378 91.5737 0.136551 86.2246 0.171232 79.6412L0.413998 28.6535C0.431338 23.3387 4.59304 18.8468 10.2807 17.3553L10.298 14.6121V13.2063L57.5853 13.4292L57.568 17.5781C63.2383 19.1383 67.348 23.6473 67.3306 28.9792Z" fill="url(#paint0_linear_0_97)"/>
<path d="M61.1055 2.45675V2.83393L61.0708 7.29149L61.0361 11.6633V12.1948C61.0361 13.0178 60.3425 13.6864 59.5102 13.6864H59.146L56.8571 13.6692L54.3427 13.6521L52.0538 13.635L49.5394 13.6178L47.2158 13.5835L44.7014 13.5664L42.4125 13.5492L39.8808 13.5321L37.5745 13.5149L35.0602 13.4978L32.7712 13.4635L30.2569 13.4464L27.9679 13.4292L25.4362 13.4121L23.13 13.3949L20.6329 13.3778L18.344 13.3606L15.8296 13.3435L13.5234 13.3264L11.009 13.3092L8.70272 13.2921H8.33857C7.50623 13.2921 6.82996 12.6063 6.82996 11.7833V11.7662V11.389L6.89932 2.57676V2.04528C6.89932 1.22235 7.59294 0.553711 8.44262 0.553711H8.80677L13.6274 0.588L18.448 0.622289L20.7543 0.639433L23.2687 0.656578L25.5576 0.673722L30.3609 0.725156L32.8753 0.7423L35.1642 0.759445L37.6786 0.776589L39.9675 0.793734L42.4819 0.810878L44.7708 0.828023L47.2852 0.845167L49.5741 0.862312L52.1231 0.896601L54.4121 0.913745L56.9264 0.93089L59.2327 0.948034H59.5969C60.4465 0.965179 61.1055 1.63381 61.1055 2.45675Z" fill="url(#paint1_linear_0_97)"/>
<path d="M61.1055 2.85109L61.0708 7.29152L61.0361 11.6634L58.9726 11.6462L56.2328 11.6291L53.7185 11.6119H50.9613L48.447 11.5948L45.7072 11.5776L43.1928 11.5605H40.4357L37.9213 11.5433L35.1642 11.5262L32.6672 11.5091H29.9101L27.3957 11.4919L24.6386 11.4748L22.1242 11.4576H19.3844L16.8701 11.4405L14.1129 11.4233L11.5986 11.4062H8.85879L6.82996 11.389L6.89932 2.57678L11.72 2.59393L16.9741 2.62822L19.4885 2.64536L22.2456 2.6625H24.76L30.0141 2.69679L32.7712 2.71394H35.2856L38.0427 2.73108L40.5397 2.74823L43.2969 2.76537H45.8112L48.5684 2.78252L51.0654 2.79966L53.8225 2.8168H56.3369L59.094 2.83395L61.1055 2.85109Z" fill="url(#paint2_linear_0_97)"/>
<path d="M67.2798 38L0.363087 37.687L0.222815 67.0212L67.1395 67.3342L67.2798 38Z" fill="#F7F9FC"/>
<path d="M67.2916 37.9999L0.374917 37.687L0.349675 42.9675L67.2664 43.2804L67.2916 37.9999Z" fill="#FBFCF7"/>
<path d="M26.4593 49.4818L22.1415 49.4646L22.1589 45.1785L16.2111 45.1614L16.1938 49.4304L11.876 49.4132L11.8413 55.2766L16.1591 55.2938L16.1418 59.5799L22.0895 59.597L22.1069 55.3281L26.4246 55.3452L26.4593 49.4818Z" fill="url(#paint3_linear_0_97)"/>
<path d="M55.7993 50.9048L34.4012 50.8019C33.829 50.8019 33.3608 50.339 33.3608 49.7732V49.2932C33.3608 48.7274 33.829 48.2645 34.4012 48.2645L55.7993 48.3674C56.3715 48.3674 56.8397 48.8303 56.8397 49.3961V49.8761C56.8397 50.4419 56.3715 50.9048 55.7993 50.9048Z" fill="url(#paint4_linear_0_97)"/>
<path opacity="0.5" d="M55.782 57.1968L34.3839 57.0939C33.8116 57.0939 33.3435 56.631 33.3435 56.0652V55.5852C33.3435 55.0194 33.8116 54.5565 34.3839 54.5565L55.782 54.6594C56.3542 54.6594 56.8224 55.1223 56.8224 55.6881V56.1681C56.8224 56.7339 56.3542 57.1968 55.782 57.1968Z" fill="url(#paint5_linear_0_97)"/>
<path opacity="0.08" d="M6.82996 2.45671V2.83389L6.86464 7.29146L6.89932 11.6462V12.1776C6.89932 13.0006 7.59294 13.6692 8.42528 13.6692H8.78943L11.0957 13.6521L13.6101 13.6349L15.899 13.6178L18.4134 13.6006L20.7023 13.5835L23.2167 13.5663L25.5056 13.5492L28.02 13.532L30.3262 13.5149L32.8406 13.4978L35.1295 13.4806L37.6439 13.4635L39.9328 13.4463L42.4472 13.4292L44.7535 13.412L47.2678 13.3949L49.5568 13.3777L52.0711 13.3606L54.3601 13.3435L56.8744 13.3263L59.1807 13.3092H59.5448C60.3772 13.3092 61.0535 12.6234 61.0535 11.8005V11.7833V11.4061C34.2278 12.5548 8.33857 0.947998 8.33857 0.947998C7.50623 0.965143 6.82996 1.63378 6.82996 2.45671Z" fill="#1A6FB5"/>
</g>
<defs>
<linearGradient id="paint0_linear_0_97" x1="0.171231" y1="12.7194" x2="61.2865" y2="98.0325" gradientUnits="userSpaceOnUse">
<stop stop-color="#6CBCFC"/>
<stop offset="1" stop-color="#458DFC"/>
</linearGradient>
<linearGradient id="paint1_linear_0_97" x1="-683.753" y1="-42.3101" x2="-29.8715" y2="3.75442" gradientUnits="userSpaceOnUse">
<stop stop-color="#B0F4FF"/>
<stop offset="0.0525488" stop-color="#A9F2FF"/>
<stop offset="0.2879" stop-color="#8DE8FE"/>
<stop offset="0.5247" stop-color="#79E1FD"/>
<stop offset="0.7618" stop-color="#6DDDFC"/>
<stop offset="1" stop-color="#69DCFC"/>
</linearGradient>
<linearGradient id="paint2_linear_0_97" x1="6.83745" y1="7.11584" x2="61.1078" y2="7.11584" gradientUnits="userSpaceOnUse">
<stop stop-color="#B0F4FF"/>
<stop offset="0.0525488" stop-color="#A9F2FF"/>
<stop offset="0.2879" stop-color="#8DE8FE"/>
<stop offset="0.5247" stop-color="#79E1FD"/>
<stop offset="0.7618" stop-color="#6DDDFC"/>
<stop offset="1" stop-color="#69DCFC"/>
</linearGradient>
<linearGradient id="paint3_linear_0_97" x1="24.033" y1="46.8143" x2="13.9804" y2="58.5389" gradientUnits="userSpaceOnUse">
<stop stop-color="#6CBCFC"/>
<stop offset="1" stop-color="#458DFC"/>
</linearGradient>
<linearGradient id="paint4_linear_0_97" x1="57.0461" y1="49.5791" x2="31.5339" y2="49.5791" gradientUnits="userSpaceOnUse">
<stop stop-color="#6CBCFC"/>
<stop offset="1" stop-color="#458DFC"/>
</linearGradient>
<linearGradient id="paint5_linear_0_97" x1="33.3419" y1="55.8707" x2="56.8227" y2="55.8707" gradientUnits="userSpaceOnUse">
<stop stop-color="#6CBCFC"/>
<stop offset="1" stop-color="#458DFC"/>
</linearGradient>
<clipPath id="clip0_0_97">
<rect width="67.1594" height="91.2429" fill="white" transform="translate(0.17123 0.553711)"/>
</clipPath>
</defs>
</svg>
