<svg width="72" height="101" viewBox="0 0 72 101" fill="none" xmlns="http://www.w3.org/2000/svg">
<g clip-path="url(#clip0_0_112)">
<path d="M71.4272 95.2619C71.4272 97.8465 69.3132 99.9471 66.7014 99.9471L5.58908 100.016C3.51008 100.016 1.74554 98.6937 1.10787 96.8524C0.941895 96.377 0.854542 95.8756 0.854542 95.3483L0.758453 8.13573C0.758453 5.55107 2.8724 3.4505 5.48426 3.4505L61.6 3.38999L66.5966 3.38135C69.2084 3.38135 71.3311 5.47327 71.3311 8.05793L71.4272 95.2619Z" fill="url(#paint0_linear_0_112)"/>
<path d="M65.0941 94.7606L7.18765 94.8211C5.78126 94.8211 4.64567 93.6973 4.64567 92.3056L4.55832 11.144C4.55832 9.75227 5.69391 8.6285 7.1003 8.6285L64.998 8.56799C66.4044 8.56799 67.54 9.69176 67.54 11.0835L67.6273 92.2451C67.6361 93.6282 66.5005 94.7606 65.0941 94.7606Z" fill="white"/>
<path d="M56.9615 15.2586L14.7262 15.3105C13.3286 15.3105 12.1842 14.1867 12.1842 12.8036L12.1755 5.83631C12.1755 4.45322 13.3111 3.32081 14.7087 3.32081L56.9528 3.27759C58.3504 3.27759 59.4947 4.40135 59.4947 5.78444L59.5035 12.7518C59.4947 14.1349 58.3591 15.2586 56.9615 15.2586ZM14.7087 4.60017C14.0274 4.60017 13.4683 5.15341 13.4683 5.82766L13.4771 12.795C13.4771 13.4692 14.0361 14.0225 14.7175 14.0225L56.9615 13.9793C57.6428 13.9793 58.2019 13.426 58.2019 12.7518L58.1932 5.78444C58.1932 5.11018 57.6341 4.55695 56.9528 4.55695L14.7087 4.60017Z" fill="url(#paint1_linear_0_112)"/>
<path d="M55.7648 6.29449L16.3248 6.33771C15.888 6.33771 15.5386 5.99194 15.5386 5.55972V1.78215C15.5386 1.34993 15.888 1.00416 16.3248 1.00416L55.756 0.960938C56.1928 0.960938 56.5422 1.30671 56.5422 1.73893V5.5165C56.551 5.94871 56.2015 6.29449 55.7648 6.29449Z" fill="url(#paint2_linear_0_112)"/>
<path d="M16.3597 6.33775L55.7298 6.29453C56.1841 6.29453 56.5509 5.93147 56.5509 5.48196V3.63208L15.5299 3.6753V5.52519C15.5299 5.97469 15.9055 6.33775 16.3597 6.33775Z" fill="#58D6F4"/>
<path d="M30.1965 85.6322L26.7897 65.2316L24.0293 74.1093L16.1326 74.1179C15.6522 74.1179 15.2678 73.7376 15.2678 73.2621C15.2678 72.7867 15.6522 72.4064 16.1326 72.4064L22.7627 72.3977L27.3138 57.7802L30.7206 78.2326L35.1407 64.1856L37.4905 70.8417L42.7841 58.1432L47.9292 78.2845L49.8684 71.8791L55.5464 71.8704C56.0268 71.8704 56.4112 72.2508 56.4112 72.7262C56.4112 73.2016 56.0268 73.582 55.5464 73.582L51.1525 73.5906L47.7894 84.6986L42.391 63.5718L37.3507 75.648L35.228 69.6402L30.1965 85.6322Z" fill="#58D6F4"/>
<path d="M24.3438 46.3004L13.2412 46.309C11.4505 46.309 9.98292 44.8654 9.98292 43.0933L9.96545 27.7324C9.96545 25.9603 11.4243 24.508 13.215 24.508L24.3176 24.4994C26.1083 24.4994 27.5759 25.943 27.5759 27.7151L27.5933 43.076C27.5933 44.8481 26.1345 46.2917 24.3438 46.3004ZM13.2063 25.4416C11.9309 25.4416 10.9001 26.4703 10.9001 27.7324L10.9176 43.0933C10.9176 44.3554 11.9571 45.3754 13.2325 45.3754L24.3351 45.3668C25.6104 45.3668 26.6412 44.3381 26.6412 43.076L26.6237 27.7151C26.6237 26.453 25.5842 25.433 24.3089 25.433L13.2063 25.4416Z" fill="url(#paint3_linear_0_112)"/>
<path d="M18.7794 43.3527C24.0293 43.344 25.6628 40.3444 25.6628 40.3444C25.427 40.0505 25.13 39.7912 24.7282 39.5319C23.348 38.6415 22.2386 38.2612 21.7756 37.8808C21.3039 37.5091 21.0418 36.9645 21.0418 36.9645L20.7536 37.1374C20.7536 37.1374 20.5789 36.5409 20.675 35.6333C20.675 35.6333 21.0855 35.5295 21.3913 34.1551C21.8804 34.2502 22.457 33.0227 22.1862 32.5732C22.0115 32.2793 21.8018 32.3052 21.6533 32.3744C21.8018 31.7606 22.4744 28.3634 18.7707 28.3634C15.0669 28.3634 15.7395 31.7606 15.8967 32.3744C15.7482 32.3052 15.5386 32.2793 15.3639 32.5732C15.0931 33.0227 15.6784 34.2502 16.1675 34.1551C16.4733 35.5295 16.8926 35.6246 16.8926 35.6246C16.9974 36.5236 16.8139 37.1287 16.8139 37.1287L16.5257 36.9559C16.5257 36.9559 16.2636 37.4918 15.7919 37.8722C15.3202 38.2525 14.2196 38.6415 12.8394 39.5319C12.4376 39.7912 12.1318 40.0505 11.9047 40.3444C11.896 40.3617 13.5382 43.3613 18.7794 43.3527Z" fill="url(#paint4_linear_0_112)"/>
<path d="M53.3538 29.4008L31.9785 29.4268C31.5767 29.4268 31.2534 29.1069 31.2534 28.7093V28.5883C31.2534 28.1906 31.5767 27.8708 31.9785 27.8708L53.3538 27.8448C53.7556 27.8448 54.0788 28.1647 54.0788 28.5623V28.6833C54.0788 29.081 53.7469 29.4008 53.3538 29.4008Z" fill="url(#paint5_linear_0_112)"/>
<path d="M45.492 33.4291L31.9785 33.4463C31.5767 33.4463 31.2534 33.1265 31.2534 32.7288V32.6078C31.2534 32.2102 31.5767 31.8903 31.9785 31.8903L45.492 31.873C45.8938 31.873 46.2171 32.1929 46.2171 32.5905V32.7116C46.2171 33.1092 45.8938 33.4291 45.492 33.4291Z" fill="url(#paint6_linear_0_112)"/>
<path opacity="0.6" d="M60.7264 38.218L31.9872 38.2525C31.5854 38.2525 31.2622 37.9327 31.2622 37.5351V37.414C31.2622 37.0164 31.5854 36.6966 31.9872 36.6966L60.7264 36.662C61.1282 36.662 61.4514 36.9818 61.4514 37.3795V37.5005C61.4427 37.8981 61.1195 38.218 60.7264 38.218Z" fill="url(#paint7_linear_0_112)"/>
<path opacity="0.6" d="M60.1062 51.6772L12.1668 51.7291C11.7562 51.7291 11.4155 51.4006 11.4155 50.9856V50.9165C11.4155 50.5102 11.7475 50.1731 12.1668 50.1731L60.1062 50.1212C60.5168 50.1212 60.8574 50.4497 60.8574 50.8646V50.9338C60.8574 51.3487 60.5168 51.6772 60.1062 51.6772Z" fill="url(#paint8_linear_0_112)"/>
<path opacity="0.6" d="M60.7264 42.9205L31.9872 42.9551C31.5854 42.9551 31.2622 42.6352 31.2622 42.2376V42.1166C31.2622 41.7189 31.5854 41.3991 31.9872 41.3991L60.7264 41.3645C61.1282 41.3645 61.4514 41.6843 61.4514 42.082V42.203C61.4514 42.6006 61.1282 42.9205 60.7264 42.9205Z" fill="url(#paint9_linear_0_112)"/>
</g>
<defs>
<linearGradient id="paint0_linear_0_112" x1="-9.02784" y1="37.1891" x2="81.0314" y2="66.7591" gradientUnits="userSpaceOnUse">
<stop stop-color="#6CBCFC"/>
<stop offset="0.1713" stop-color="#5EABFC"/>
<stop offset="0.4084" stop-color="#509AFC"/>
<stop offset="0.6698" stop-color="#4890FC"/>
<stop offset="1" stop-color="#458DFC"/>
</linearGradient>
<linearGradient id="paint1_linear_0_112" x1="-4.74645" y1="-21.3246" x2="59.2416" y2="9.81482" gradientUnits="userSpaceOnUse">
<stop stop-color="#CFE9FF"/>
<stop offset="1" stop-color="#A1D6FB"/>
</linearGradient>
<linearGradient id="paint2_linear_0_112" x1="15.5286" y1="3.65033" x2="56.5502" y2="3.65033" gradientUnits="userSpaceOnUse">
<stop stop-color="#B0F4FF"/>
<stop offset="1" stop-color="#69DCFC"/>
</linearGradient>
<linearGradient id="paint3_linear_0_112" x1="15.6506" y1="31.4126" x2="25.8207" y2="44.6794" gradientUnits="userSpaceOnUse">
<stop stop-color="#6CBCFC"/>
<stop offset="1" stop-color="#458DFC"/>
</linearGradient>
<linearGradient id="paint4_linear_0_112" x1="14.533" y1="32.2694" x2="24.7031" y2="45.5363" gradientUnits="userSpaceOnUse">
<stop stop-color="#B0F4FF"/>
<stop offset="0.0994384" stop-color="#A1EFFE"/>
<stop offset="0.2994" stop-color="#88E7FD"/>
<stop offset="0.5095" stop-color="#77E1FD"/>
<stop offset="0.7344" stop-color="#6CDDFC"/>
<stop offset="1" stop-color="#69DCFC"/>
</linearGradient>
<linearGradient id="paint5_linear_0_112" x1="31.2547" y1="28.6429" x2="54.0743" y2="28.6567" gradientUnits="userSpaceOnUse">
<stop stop-color="#6CBCFC"/>
<stop offset="1" stop-color="#458DFC"/>
</linearGradient>
<linearGradient id="paint6_linear_0_112" x1="31.2589" y1="32.6597" x2="46.2161" y2="32.6597" gradientUnits="userSpaceOnUse">
<stop stop-color="#6CBCFC"/>
<stop offset="1" stop-color="#458DFC"/>
</linearGradient>
<linearGradient id="paint7_linear_0_112" x1="31.2638" y1="37.462" x2="61.4466" y2="37.462" gradientUnits="userSpaceOnUse">
<stop stop-color="#6CBCFC"/>
<stop offset="1" stop-color="#458DFC"/>
</linearGradient>
<linearGradient id="paint8_linear_0_112" x1="11.4151" y1="50.9297" x2="60.855" y2="50.9297" gradientUnits="userSpaceOnUse">
<stop stop-color="#6CBCFC"/>
<stop offset="1" stop-color="#458DFC"/>
</linearGradient>
<linearGradient id="paint9_linear_0_112" x1="31.2687" y1="42.1635" x2="61.4514" y2="42.1635" gradientUnits="userSpaceOnUse">
<stop stop-color="#6CBCFC"/>
<stop offset="1" stop-color="#458DFC"/>
</linearGradient>
<clipPath id="clip0_0_112">
<rect width="70.6687" height="99.0467" fill="white" transform="translate(0.758453 0.960938)"/>
</clipPath>
</defs>
</svg>
