<svg width="11" height="16" viewBox="0 0 11 16" fill="none" xmlns="http://www.w3.org/2000/svg">
<path d="M4.81091 0.87689L4.81091 12.4521L2.14676 9.9091C1.77929 9.55833 1.22809 9.55833 0.860623 9.9091C0.493155 10.2599 0.493155 10.786 0.860623 11.1368L5.08651 15.1706C5.45398 15.5213 6.00518 15.5213 6.37265 15.1706L10.5985 11.1368C10.966 10.786 10.966 10.2599 10.5985 9.9091C10.2311 9.55833 9.67987 9.55833 9.3124 9.9091L6.64825 12.4521L6.64825 0.87689C6.64825 0.438433 6.28078 -2.31258e-05 5.72958 -2.31028e-05C5.17838 -2.30798e-05 4.81091 0.438433 4.81091 0.87689Z" fill="#458FF6"/>
</svg>
