<svg width="85" height="76" viewBox="0 0 85 76" fill="none" xmlns="http://www.w3.org/2000/svg">
<g clip-path="url(#clip0_0_155)">
<path d="M70.751 14.9131H14.683V75.0895H70.751V14.9131Z" fill="url(#paint0_linear_0_155)"/>
<path d="M14.4509 14.913C14.5186 14.913 14.5863 14.9421 14.6829 14.9711C14.6829 34.9912 14.6829 55.0114 14.6829 75.0605C10.3425 75.3988 6.67874 74.3065 3.769 71.5031C1.70995 69.5117 0.714259 67.1723 0.714259 64.5236C0.714259 55.1467 0.714259 45.7795 0.714259 36.4026C0.714259 32.8258 0.704592 29.2491 0.704592 25.6723C0.704592 21.3512 3.03432 18.2095 7.31675 16.0827C9.52081 15.0001 11.9665 14.8357 14.4509 14.913Z" fill="url(#paint1_linear_0_155)"/>
<path d="M60.9584 14.9034C63.4621 14.9034 63.7135 14.9034 66.2075 14.9034C66.2075 34.9912 66.2075 55.0114 66.2075 75.0702C49.1841 75.0702 36.3078 75.0702 19.2264 75.0702C19.2264 55.0211 19.2264 35.0009 19.2264 14.9228C21.7205 14.9228 22.2618 14.9228 24.8042 14.9228C24.8042 14.6714 24.8042 14.4781 24.8042 14.2944C24.8042 12.1387 24.8139 9.97331 24.7945 7.81759C24.7752 6.30956 25.1812 4.99486 26.3606 3.97017C27.1919 3.25482 28.1489 2.88747 29.2316 2.88747C32.5861 2.87781 35.9308 2.87781 39.2852 2.87781C44.921 2.87781 50.5665 2.88747 56.2023 2.87781C57.6813 2.87781 58.909 3.36115 59.8757 4.48251C60.6491 5.38153 60.9391 6.43523 60.9391 7.61459C60.9294 9.88631 60.9391 12.158 60.9391 14.4298C60.9294 14.5554 60.9391 14.7004 60.9584 14.9034ZM30.8557 14.9034C31.0877 14.9034 31.2617 14.9034 31.4357 14.9034C34.1038 14.9034 36.7815 14.9034 39.4496 14.9034C44.4377 14.9034 49.4355 14.9034 54.4236 14.9131C54.8199 14.9131 54.9069 14.7874 54.9069 14.4104C54.8876 12.7187 54.9069 11.027 54.9069 9.3353C54.9069 9.19996 54.8876 9.06462 54.8683 8.91962C46.8447 8.91962 38.8695 8.91962 30.8557 8.91962C30.8557 10.911 30.8557 12.8637 30.8557 14.9034Z" fill="white"/>
<mask id="mask0_0_155" style="mask-type:alpha" maskUnits="userSpaceOnUse" x="19" y="2" width="48" height="74">
<path d="M60.9584 14.9034C63.4621 14.9034 63.7135 14.9034 66.2075 14.9034C66.2075 34.9912 66.2075 55.0114 66.2075 75.0702C49.1841 75.0702 36.3078 75.0702 19.2264 75.0702C19.2264 55.0211 19.2264 35.0009 19.2264 14.9228C21.7204 14.9228 22.2618 14.9228 24.8042 14.9228C24.8042 14.6714 24.8042 14.4781 24.8042 14.2944C24.8042 12.1387 24.8138 9.97331 24.7945 7.81759C24.7752 6.30956 25.1812 4.99486 26.3605 3.97017C27.1919 3.25482 28.1489 2.88747 29.2316 2.88747C32.586 2.87781 35.9308 2.87781 39.2852 2.87781C44.921 2.87781 50.5665 2.88747 56.2023 2.87781C57.6813 2.87781 58.909 3.36115 59.8757 4.48251C60.649 5.38153 60.939 6.43523 60.939 7.61459C60.9294 9.88631 60.939 12.158 60.939 14.4298C60.9294 14.5554 60.9391 14.7004 60.9584 14.9034ZM30.8557 14.9034C31.0877 14.9034 31.2617 14.9034 31.4357 14.9034C34.1037 14.9034 36.7815 14.9034 39.4495 14.9034C44.4377 14.9034 49.4354 14.9034 54.4236 14.9131C54.8199 14.9131 54.9069 14.7874 54.9069 14.4104C54.8876 12.7187 54.9069 11.027 54.9069 9.3353C54.9069 9.19996 54.8876 9.06462 54.8682 8.91962C46.8447 8.91962 38.8695 8.91962 30.8557 8.91962C30.8557 10.911 30.8557 12.8637 30.8557 14.9034Z" fill="#F7F9FC"/>
</mask>
<g mask="url(#mask0_0_155)">
<path d="M61.9226 0.151733H22.8393V14.9228H61.9226V0.151733Z" fill="url(#paint2_linear_0_155)"/>
</g>
<path d="M85 25.5177C85 21.5349 82.825 18.5671 78.9582 16.4114C76.5801 15.0871 73.8831 14.8357 71.1183 14.8937C70.693 14.9034 70.751 15.1257 70.751 15.3577C70.751 22.3179 70.751 29.2684 70.751 36.2286C70.751 48.4572 70.751 60.6762 70.7413 72.9048C70.7413 73.6105 70.7413 74.3162 70.7413 75.0799C72.4814 75.1379 74.1344 75.1475 75.7584 74.7609C81.2492 73.4655 84.9903 69.3764 84.9903 64.5526C85.0097 51.5506 85 38.5293 85 25.5177Z" fill="url(#paint3_linear_0_155)"/>
<path d="M47.2991 49.4433C47.2991 50.6903 47.2991 51.8696 47.2991 53.0587C47.2991 54.4024 47.2991 55.7461 47.2991 57.0801C47.2991 57.8825 46.8931 58.3078 46.1004 58.3078C43.9157 58.3175 41.7309 58.3175 39.5462 58.3078C38.8212 58.3078 38.4152 57.8535 38.4152 57.0898C38.4152 54.6924 38.4152 52.295 38.4152 49.8976C38.4152 49.7623 38.4152 49.6173 38.4152 49.4433C38.2315 49.4433 38.0962 49.4433 37.9512 49.4433C35.5925 49.4433 33.2241 49.4433 30.8653 49.4433C29.9277 49.4433 29.541 49.0662 29.541 48.1286C29.541 46.0502 29.541 43.9718 29.541 41.8934C29.541 40.946 29.918 40.569 30.8557 40.569C33.2047 40.569 35.5538 40.569 37.9029 40.569C38.0575 40.569 38.2025 40.569 38.4055 40.569C38.4055 40.4144 38.4055 40.2887 38.4055 40.163C38.4055 37.7656 38.4055 35.3682 38.4055 32.9709C38.4055 32.0815 38.8019 31.6948 39.6912 31.6948C41.7696 31.6948 43.848 31.6948 45.9264 31.6948C46.9027 31.6948 47.2797 32.0622 47.2797 33.0579C47.2894 35.4359 47.2797 37.8043 47.2797 40.1824C47.2797 40.2984 47.2797 40.4144 47.2797 40.5787C47.4344 40.5787 47.5698 40.5787 47.6954 40.5787C50.0928 40.5787 52.4902 40.5787 54.8876 40.5884C55.7673 40.5884 56.1443 40.975 56.1443 41.8547C56.1443 43.9428 56.1443 46.0308 56.1443 48.1189C56.1443 49.0759 55.777 49.4433 54.8393 49.4433C52.4515 49.4433 50.0638 49.4433 47.6858 49.4529C47.5891 49.4433 47.4731 49.4433 47.2991 49.4433Z" fill="url(#paint4_linear_0_155)"/>
</g>
<defs>
<linearGradient id="paint0_linear_0_155" x1="14.6844" y1="44.9977" x2="70.7483" y2="44.9977" gradientUnits="userSpaceOnUse">
<stop stop-color="#B0F4FF"/>
<stop offset="1" stop-color="#69DCFC"/>
</linearGradient>
<linearGradient id="paint1_linear_0_155" x1="0.714259" y1="45.0072" x2="14.6843" y2="45.0072" gradientUnits="userSpaceOnUse">
<stop stop-color="#6CBCFC"/>
<stop offset="1" stop-color="#458DFC"/>
</linearGradient>
<linearGradient id="paint2_linear_0_155" x1="22.8352" y1="7.53568" x2="61.9209" y2="7.53568" gradientUnits="userSpaceOnUse">
<stop stop-color="#6CBCFC"/>
<stop offset="1" stop-color="#458DFC"/>
</linearGradient>
<linearGradient id="paint3_linear_0_155" x1="70.7437" y1="45.0012" x2="85.0008" y2="45.0012" gradientUnits="userSpaceOnUse">
<stop stop-color="#6CBCFC"/>
<stop offset="1" stop-color="#458DFC"/>
</linearGradient>
<linearGradient id="paint4_linear_0_155" x1="29.5469" y1="45.011" x2="56.1636" y2="45.011" gradientUnits="userSpaceOnUse">
<stop stop-color="#6CBCFC"/>
<stop offset="1" stop-color="#458DFC"/>
</linearGradient>
<clipPath id="clip0_0_155">
<rect width="84.2857" height="74.9668" fill="white" transform="translate(0.714282 0.151733)"/>
</clipPath>
</defs>
</svg>
