<svg width="72" height="100" viewBox="0 0 72 100" fill="none" xmlns="http://www.w3.org/2000/svg">
<g clip-path="url(#clip0_0_76)">
<path d="M68.7359 0.921143H2.74022C1.38292 0.921143 0.285706 1.99316 0.285706 3.31929V97.5776C0.285706 98.9037 1.38292 99.9758 2.74022 99.9758H68.7359C70.0932 99.9758 71.1904 98.9037 71.1904 97.5776V3.31929C71.1823 1.99316 70.0851 0.921143 68.7359 0.921143Z" fill="url(#paint0_linear_0_76)"/>
<path d="M64.4039 5.19336H7.06409C5.74743 5.19336 4.67459 6.24156 4.67459 7.53592V85.4678C4.67459 86.7621 5.74743 87.8024 7.06409 87.8024H64.4039C65.7287 87.8024 66.7934 86.7542 66.7934 85.4678V7.53592C66.7934 6.24156 65.7287 5.19336 64.4039 5.19336Z" fill="white"/>
<path d="M47.458 42.2455H24.0181C22.9453 42.2455 22.0757 41.3958 22.0757 40.3476V17.4382C22.0757 16.39 22.9453 15.5403 24.0181 15.5403H47.458C48.5308 15.5403 49.4005 16.39 49.4005 17.4382V40.3397C49.4005 41.3879 48.5308 42.2455 47.458 42.2455Z" fill="url(#paint1_linear_0_76)"/>
<path d="M35.7381 97.4109C37.7311 97.4109 39.3467 95.8323 39.3467 93.8851C39.3467 91.9379 37.7311 90.3594 35.7381 90.3594C33.7451 90.3594 32.1294 91.9379 32.1294 93.8851C32.1294 95.8323 33.7451 97.4109 35.7381 97.4109Z" fill="white"/>
<path d="M56.1626 54.1092H15.3054C14.2732 54.1092 13.4279 53.2834 13.4279 52.2749C13.4279 51.2664 14.2732 50.4406 15.3054 50.4406H56.1545C57.1867 50.4406 58.0319 51.2664 58.0319 52.2749C58.0319 53.2834 57.1948 54.1092 56.1626 54.1092Z" fill="url(#paint2_linear_0_76)"/>
<path opacity="0.6" d="M49.2461 64.2736H14.6227C13.9644 64.2736 13.4361 63.7495 13.4361 63.1142V62.9871C13.4361 62.3439 13.9725 61.8278 14.6227 61.8278H49.2461C49.9044 61.8278 50.4327 62.3519 50.4327 62.9871V63.1142C50.4408 63.7495 49.9044 64.2736 49.2461 64.2736Z" fill="url(#paint3_linear_0_76)"/>
<path opacity="0.3" d="M42.6546 70.7295H14.5089C13.9156 70.7295 13.4279 70.253 13.4279 69.6734V69.324C13.4279 68.7443 13.9156 68.2678 14.5089 68.2678H42.6465C43.2398 68.2678 43.7274 68.7443 43.7274 69.324V69.6734C43.7274 70.253 43.2398 70.7295 42.6546 70.7295Z" fill="url(#paint4_linear_0_76)"/>
<path opacity="0.6" d="M46.1982 76.709H14.574C13.9481 76.709 13.4361 76.2087 13.4361 75.5972V75.3749C13.4361 74.7635 13.9481 74.2632 14.574 74.2632H46.1982C46.8241 74.2632 47.3361 74.7635 47.3361 75.3749V75.5972C47.3361 76.2008 46.8241 76.709 46.1982 76.709Z" fill="url(#paint5_linear_0_76)"/>
<path d="M35.8085 28.1546C38.1554 28.1546 40.0579 26.271 40.0579 23.9473C40.0579 21.6236 38.1554 19.74 35.8085 19.74C33.4616 19.74 31.5592 21.6236 31.5592 23.9473C31.5592 26.271 33.4527 28.1546 35.8085 28.1546ZM35.8085 30.2582C32.9726 30.2582 27.3098 31.6665 27.3098 34.4655V35.5217C27.3098 36.1026 27.7899 36.5779 28.3766 36.5779H43.2582C43.8449 36.5779 44.325 36.1026 44.325 35.5217V34.4655C44.3072 31.6753 38.6444 30.2582 35.8085 30.2582Z" fill="white"/>
</g>
<defs>
<linearGradient id="paint0_linear_0_76" x1="4.5811" y1="47.8694" x2="71.2276" y2="53.643" gradientUnits="userSpaceOnUse">
<stop stop-color="#6CBCFC"/>
<stop offset="1" stop-color="#458DFC"/>
</linearGradient>
<linearGradient id="paint1_linear_0_76" x1="19.9567" y1="21.0353" x2="51.2084" y2="37.3331" gradientUnits="userSpaceOnUse">
<stop stop-color="#B0F4FF"/>
<stop offset="0.0856277" stop-color="#A3F0FE"/>
<stop offset="0.2972" stop-color="#8AE7FD"/>
<stop offset="0.5161" stop-color="#77E1FD"/>
<stop offset="0.7451" stop-color="#6DDDFC"/>
<stop offset="1" stop-color="#69DCFC"/>
</linearGradient>
<linearGradient id="paint2_linear_0_76" x1="58.0359" y1="52.2764" x2="13.4356" y2="52.2764" gradientUnits="userSpaceOnUse">
<stop stop-color="#6CBCFC"/>
<stop offset="1" stop-color="#458DFC"/>
</linearGradient>
<linearGradient id="paint3_linear_0_76" x1="50.4385" y1="63.0471" x2="13.4356" y2="63.0471" gradientUnits="userSpaceOnUse">
<stop stop-color="#6CBCFC"/>
<stop offset="1" stop-color="#458DFC"/>
</linearGradient>
<linearGradient id="paint4_linear_0_76" x1="43.7283" y1="69.5031" x2="13.4356" y2="69.5031" gradientUnits="userSpaceOnUse">
<stop stop-color="#6CBCFC"/>
<stop offset="1" stop-color="#458DFC"/>
</linearGradient>
<linearGradient id="paint5_linear_0_76" x1="47.3354" y1="75.4797" x2="13.4356" y2="75.4797" gradientUnits="userSpaceOnUse">
<stop stop-color="#6CBCFC"/>
<stop offset="1" stop-color="#458DFC"/>
</linearGradient>
<clipPath id="clip0_0_76">
<rect width="70.8966" height="99.0467" fill="white" transform="translate(0.285706 0.921143)"/>
</clipPath>
</defs>
</svg>
