<svg width="98" height="95" viewBox="0 0 98 95" fill="none" xmlns="http://www.w3.org/2000/svg">
<g clip-path="url(#clip0_0_64)">
<path d="M60.2093 45.3795L50.6451 54.4137L10.2572 92.558C9.19685 93.5618 7.83666 94.0637 6.47647 94.0637C4.98776 94.0637 3.49905 93.4657 2.41733 92.2804C0.286007 89.9524 0.564471 86.311 3.01709 84.3247L50.6451 45.9135L55.8931 41.6847L60.2093 45.3795Z" fill="url(#paint0_linear_0_64)"/>
<path d="M50.2275 54.8729L40.8132 63.7576L39.9457 54.6273L45.0973 50.4733L50.2275 54.8729Z" fill="#3A81D6" fill-opacity="0.8"/>
<path d="M97.8876 31.4012C97.8876 48.6259 83.8787 62.5936 66.614 62.5936C55.7325 62.5936 46.1469 57.0514 40.5455 48.6366C37.2574 43.703 35.3403 37.7763 35.3403 31.4012C35.3403 14.1764 49.3492 0.21936 66.614 0.21936C74.4109 0.21936 81.5332 3.05989 87.0061 7.75852C93.6678 13.4823 97.8876 21.9505 97.8876 31.4012Z" fill="url(#paint1_linear_0_64)"/>
<path d="M66.614 55.6952C80.0707 55.6952 90.9796 44.8184 90.9796 31.4012C90.9796 17.984 80.0707 7.10718 66.614 7.10718C53.1572 7.10718 42.2484 17.984 42.2484 31.4012C42.2484 44.8184 53.1572 55.6952 66.614 55.6952Z" fill="white"/>
<path opacity="0.06" d="M97.8876 31.4012C97.8876 48.6259 83.8787 62.5937 66.614 62.5937C55.7325 62.5937 46.1469 57.0514 40.5455 48.6366C75.814 45.7747 85.1104 15.9811 87.0168 7.75854C93.6678 13.4823 97.8876 21.9505 97.8876 31.4012Z" fill="#1A6FB5" fill-opacity="0.5"/>
<path d="M66.6139 31.4546C69.4414 31.4546 71.7334 29.1693 71.7334 26.3501C71.7334 23.531 69.4414 21.2457 66.6139 21.2457C63.7864 21.2457 61.4945 23.531 61.4945 26.3501C61.4945 29.1693 63.7757 31.4546 66.6139 31.4546ZM66.6139 34.0068C63.1974 34.0068 56.375 35.7154 56.375 39.1112V40.3926C56.375 41.0974 56.9534 41.6741 57.6602 41.6741H75.589C76.2959 41.6741 76.8742 41.0974 76.8742 40.3926V39.1112C76.8528 35.726 70.0305 34.0068 66.6139 34.0068Z" fill="url(#paint2_linear_0_64)"/>
</g>
<defs>
<linearGradient id="paint0_linear_0_64" x1="6.96088" y1="88.1379" x2="57.3171" y2="42.2247" gradientUnits="userSpaceOnUse">
<stop stop-color="#67C3F3"/>
<stop offset="1" stop-color="#5A98F2"/>
</linearGradient>
<linearGradient id="paint1_linear_0_64" x1="53.679" y1="2.42274" x2="77.2476" y2="55.5625" gradientUnits="userSpaceOnUse">
<stop stop-color="#67C3F3"/>
<stop offset="1" stop-color="#5A98F2"/>
</linearGradient>
<linearGradient id="paint2_linear_0_64" x1="59.2116" y1="29.8236" x2="77.7337" y2="38.884" gradientUnits="userSpaceOnUse">
<stop stop-color="#B0F4FF"/>
<stop offset="0.071077" stop-color="#A6F1FF"/>
<stop offset="0.2937" stop-color="#8BE8FD"/>
<stop offset="0.5209" stop-color="#78E1FD"/>
<stop offset="0.7536" stop-color="#6DDDFC"/>
<stop offset="1" stop-color="#69DCFC"/>
</linearGradient>
<clipPath id="clip0_0_64">
<rect width="96.9054" height="93.8337" fill="white" transform="translate(0.982147 0.21936)"/>
</clipPath>
</defs>
</svg>
