<svg width="76" height="104" viewBox="0 0 76 104" fill="none" xmlns="http://www.w3.org/2000/svg">
<g clip-path="url(#clip0_0_131)">
<path d="M75.6301 5.60498V98.5897C75.6301 101.156 73.5388 103.229 70.9504 103.229H4.93688C2.34845 103.212 0.257141 101.139 0.257141 98.5897V5.60498C0.257141 3.03907 2.34845 0.965942 4.93688 0.965942H70.9675C73.5388 0.965942 75.6301 3.03907 75.6301 5.60498Z" fill="url(#paint0_linear_0_131)"/>
<path d="M70.8286 9.51867V94.6589C70.8286 97.0084 68.991 98.9066 66.7166 98.9066H8.71199C6.4376 98.891 4.60001 96.9928 4.60001 94.6589V9.51867C4.60001 7.16922 6.4376 5.271 8.71199 5.271H66.7317C68.991 5.271 70.8286 7.16922 70.8286 9.51867Z" fill="url(#paint1_linear_0_131)"/>
<path d="M29.4322 20.6097V24.8409C29.4322 25.1467 29.1922 25.3846 28.8837 25.3846H23.6554C23.3468 25.3846 23.1068 25.6225 23.1068 25.9284V31.1112C23.1068 31.4171 22.8669 31.655 22.5583 31.655H18.29C17.9814 31.655 17.7414 31.4171 17.7414 31.1112V25.9284C17.7414 25.6225 17.5014 25.3846 17.1929 25.3846H11.9817C11.6732 25.3846 11.4332 25.1467 11.4332 24.8409V20.6097C11.4332 20.3038 11.6732 20.0659 11.9817 20.0659H17.21C17.5186 20.0659 17.7586 19.828 17.7586 19.5221V14.3393C17.7586 14.0334 17.9985 13.7955 18.3071 13.7955H22.5754C22.884 13.7955 23.124 14.0334 23.124 14.3393V19.5221C23.124 19.828 23.364 20.0659 23.6725 20.0659H28.8837C29.1922 20.0659 29.4322 20.3038 29.4322 20.6097Z" fill="url(#paint2_linear_0_131)"/>
<path opacity="0.5" d="M63.8536 43.6689H12.0336C11.6908 43.6689 11.4165 43.397 11.4165 43.0571V41.103C11.4165 40.7631 11.6908 40.4912 12.0336 40.4912H63.8536C64.1964 40.4912 64.4707 40.7631 64.4707 41.103V43.0571C64.4536 43.397 64.1964 43.6689 63.8536 43.6689Z" fill="url(#paint3_linear_0_131)"/>
<path d="M63.8536 19.3183H38.1407C37.7979 19.3183 37.5236 19.0464 37.5236 18.7065V16.7693C37.5236 16.4295 37.7979 16.1576 38.1407 16.1576H63.8536C64.1964 16.1576 64.4707 16.4295 64.4707 16.7693V18.7235C64.4536 19.0464 64.1964 19.3183 63.8536 19.3183Z" fill="url(#paint4_linear_0_131)"/>
<path opacity="0.5" d="M56.2426 27.5767H38.1407C37.7979 27.5767 37.5236 27.3048 37.5236 26.965V25.0108C37.5236 24.6709 37.7979 24.399 38.1407 24.399H56.2426C56.5854 24.399 56.8597 24.6709 56.8597 25.0108V26.965C56.8426 27.3048 56.5854 27.5767 56.2426 27.5767Z" fill="url(#paint5_linear_0_131)"/>
<path opacity="0.5" d="M63.8536 52.9469H12.0336C11.6908 52.9469 11.4165 52.6751 11.4165 52.3352V50.381C11.4165 50.0412 11.6908 49.7693 12.0336 49.7693H63.8536C64.1964 49.7693 64.4707 50.0412 64.4707 50.381V52.3352C64.4536 52.6751 64.1964 52.9469 63.8536 52.9469Z" fill="url(#paint6_linear_0_131)"/>
<path opacity="0.5" d="M63.8536 62.225H12.0336C11.6908 62.225 11.4165 61.9531 11.4165 61.6133V59.6591C11.4165 59.3192 11.6908 59.0474 12.0336 59.0474H63.8536C64.1964 59.0474 64.4707 59.3192 64.4707 59.6591V61.6303C64.4536 61.9531 64.1964 62.225 63.8536 62.225Z" fill="url(#paint7_linear_0_131)"/>
<path opacity="0.5" d="M63.8536 71.5202H12.0336C11.6908 71.5202 11.4165 71.2483 11.4165 70.9084V68.9543C11.4165 68.6144 11.6908 68.3425 12.0336 68.3425H63.8536C64.1964 68.3425 64.4707 68.6144 64.4707 68.9543V70.9084C64.4536 71.2483 64.1964 71.5202 63.8536 71.5202Z" fill="url(#paint8_linear_0_131)"/>
<path opacity="0.5" d="M63.8536 80.7982H12.0336C11.6908 80.7982 11.4165 80.5263 11.4165 80.1864V78.2322C11.4165 77.8924 11.6908 77.6205 12.0336 77.6205H63.8536C64.1964 77.6205 64.4707 77.8924 64.4707 78.2322V80.1864C64.4536 80.5263 64.1964 80.7982 63.8536 80.7982Z" fill="url(#paint9_linear_0_131)"/>
<path opacity="0.5" d="M63.8536 90.0763H12.0336C11.6908 90.0763 11.4165 89.8044 11.4165 89.4645V87.5104C11.4165 87.1705 11.6908 86.8986 12.0336 86.8986H63.8536C64.1964 86.8986 64.4707 87.1705 64.4707 87.5104V89.4645C64.4536 89.8044 64.1964 90.0763 63.8536 90.0763Z" fill="url(#paint10_linear_0_131)"/>
<path opacity="0.1" d="M75.6301 5.60498V98.5897C75.6301 101.156 73.5388 103.229 70.9504 103.229H4.93688C2.34845 103.212 0.257141 101.139 0.257141 98.5897V96.9753C40.5235 80.4923 59.2767 17.279 63.5108 0.965942H70.9504C73.5388 0.965942 75.6301 3.03907 75.6301 5.60498Z" fill="#1A6FB5" fill-opacity="0.4"/>
</g>
<defs>
<linearGradient id="paint0_linear_0_131" x1="103.4" y1="136.576" x2="-5.05489" y2="-5.86893" gradientUnits="userSpaceOnUse">
<stop offset="0.3061" stop-color="#5BA7FC"/>
<stop offset="1" stop-color="#69B8FC"/>
</linearGradient>
<linearGradient id="paint1_linear_0_131" x1="9.62045" y1="8.54893" x2="62.5328" y2="85.3819" gradientUnits="userSpaceOnUse">
<stop offset="0.3061" stop-color="white"/>
<stop offset="1" stop-color="white"/>
</linearGradient>
<linearGradient id="paint2_linear_0_131" x1="11.1138" y1="11.1905" x2="27.1934" y2="37.6843" gradientUnits="userSpaceOnUse">
<stop stop-color="#B0F4FF"/>
<stop offset="0.368525" stop-color="#80E4FD"/>
<stop offset="1" stop-color="#6CDDFC"/>
</linearGradient>
<linearGradient id="paint3_linear_0_131" x1="11.4297" y1="42.0873" x2="64.4614" y2="42.0873" gradientUnits="userSpaceOnUse">
<stop stop-color="#6CBCFC"/>
<stop offset="1" stop-color="#458DFC"/>
</linearGradient>
<linearGradient id="paint4_linear_0_131" x1="37.5241" y1="17.7391" x2="64.4614" y2="17.7391" gradientUnits="userSpaceOnUse">
<stop stop-color="#6CBCFC"/>
<stop offset="1" stop-color="#458DFC"/>
</linearGradient>
<linearGradient id="paint5_linear_0_131" x1="37.5241" y1="26.0017" x2="56.8506" y2="26.0017" gradientUnits="userSpaceOnUse">
<stop stop-color="#6CBCFC"/>
<stop offset="1" stop-color="#458DFC"/>
</linearGradient>
<linearGradient id="paint6_linear_0_131" x1="11.4297" y1="51.3695" x2="64.4614" y2="51.3695" gradientUnits="userSpaceOnUse">
<stop stop-color="#6CBCFC"/>
<stop offset="1" stop-color="#458DFC"/>
</linearGradient>
<linearGradient id="paint7_linear_0_131" x1="11.4297" y1="60.6518" x2="64.4614" y2="60.6518" gradientUnits="userSpaceOnUse">
<stop stop-color="#6CBCFC"/>
<stop offset="1" stop-color="#458DFC"/>
</linearGradient>
<linearGradient id="paint8_linear_0_131" x1="11.4297" y1="69.9342" x2="64.4614" y2="69.9342" gradientUnits="userSpaceOnUse">
<stop stop-color="#6CBCFC"/>
<stop offset="1" stop-color="#458DFC"/>
</linearGradient>
<linearGradient id="paint9_linear_0_131" x1="11.4297" y1="79.2164" x2="64.4614" y2="79.2164" gradientUnits="userSpaceOnUse">
<stop stop-color="#6CBCFC"/>
<stop offset="1" stop-color="#458DFC"/>
</linearGradient>
<linearGradient id="paint10_linear_0_131" x1="11.4297" y1="88.4987" x2="64.4614" y2="88.4987" gradientUnits="userSpaceOnUse">
<stop stop-color="#6CBCFC"/>
<stop offset="1" stop-color="#458DFC"/>
</linearGradient>
<clipPath id="clip0_0_131">
<rect width="75.373" height="102.246" fill="white" transform="translate(0.257141 0.965942)"/>
</clipPath>
</defs>
</svg>
