<svg width="172" height="41" viewBox="0 0 172 41" fill="none" xmlns="http://www.w3.org/2000/svg">
<path d="M59.0858 30V15.624H53.4938V13.08H67.7738V15.624H62.1818V30H59.0858ZM67.8221 30V20.976C67.8221 20.464 67.8061 19.944 67.7741 19.416C67.7581 18.888 67.7181 18.376 67.6541 17.88H70.5581L70.8941 21.192H70.4141C70.5741 20.392 70.8381 19.728 71.2061 19.2C71.5901 18.672 72.0541 18.28 72.5981 18.024C73.1421 17.768 73.7341 17.64 74.3741 17.64C74.6621 17.64 74.8941 17.656 75.0701 17.688C75.2461 17.704 75.4221 17.744 75.5981 17.808L75.5741 20.448C75.2701 20.32 75.0061 20.24 74.7821 20.208C74.5741 20.176 74.3101 20.16 73.9901 20.16C73.3021 20.16 72.7181 20.304 72.2381 20.592C71.7741 20.88 71.4221 21.28 71.1821 21.792C70.9581 22.304 70.8461 22.888 70.8461 23.544V30H67.8221ZM81.8308 30.24C80.7748 30.24 79.8468 29.992 79.0468 29.496C78.2468 28.984 77.6228 28.256 77.1748 27.312C76.7268 26.368 76.5028 25.24 76.5028 23.928C76.5028 22.616 76.7268 21.496 77.1748 20.568C77.6228 19.624 78.2468 18.904 79.0468 18.408C79.8468 17.896 80.7748 17.64 81.8308 17.64C82.8548 17.64 83.7508 17.896 84.5188 18.408C85.3028 18.904 85.8228 19.576 86.0788 20.424H85.8148L86.0788 17.88H88.9588C88.9108 18.376 88.8628 18.88 88.8148 19.392C88.7828 19.904 88.7668 20.408 88.7668 20.904V30H85.7908L85.7668 27.504H86.0548C85.7988 28.336 85.2788 29 84.4948 29.496C83.7108 29.992 82.8228 30.24 81.8308 30.24ZM82.6708 27.936C83.6148 27.936 84.3748 27.608 84.9508 26.952C85.5268 26.28 85.8148 25.272 85.8148 23.928C85.8148 22.584 85.5268 21.584 84.9508 20.928C84.3748 20.272 83.6148 19.944 82.6708 19.944C81.7268 19.944 80.9668 20.272 80.3908 20.928C79.8148 21.584 79.5268 22.584 79.5268 23.928C79.5268 25.272 79.8068 26.28 80.3668 26.952C80.9428 27.608 81.7108 27.936 82.6708 27.936ZM92.8496 30V20.136H90.5216V17.88H93.6896L92.8496 18.648V16.8C92.8496 15.296 93.2336 14.16 94.0016 13.392C94.7856 12.624 95.9296 12.24 97.4336 12.24C97.7856 12.24 98.1536 12.264 98.5376 12.312C98.9376 12.36 99.2816 12.448 99.5696 12.576V14.928C99.3616 14.848 99.1136 14.784 98.8256 14.736C98.5376 14.688 98.2576 14.664 97.9856 14.664C97.5696 14.664 97.1936 14.744 96.8576 14.904C96.5376 15.064 96.2816 15.312 96.0896 15.648C95.9136 15.968 95.8256 16.4 95.8256 16.944V18.408L95.3936 17.88H99.0176V20.136H95.8496V30H92.8496ZM105.432 30.24C104.376 30.24 103.448 29.992 102.648 29.496C101.848 28.984 101.224 28.256 100.776 27.312C100.328 26.368 100.104 25.24 100.104 23.928C100.104 22.616 100.328 21.496 100.776 20.568C101.224 19.624 101.848 18.904 102.648 18.408C103.448 17.896 104.376 17.64 105.432 17.64C106.456 17.64 107.352 17.896 108.12 18.408C108.904 18.904 109.424 19.576 109.68 20.424H109.416L109.68 17.88H112.56C112.512 18.376 112.464 18.88 112.416 19.392C112.384 19.904 112.368 20.408 112.368 20.904V30H109.392L109.368 27.504H109.656C109.4 28.336 108.88 29 108.096 29.496C107.312 29.992 106.424 30.24 105.432 30.24ZM106.272 27.936C107.216 27.936 107.976 27.608 108.552 26.952C109.128 26.28 109.416 25.272 109.416 23.928C109.416 22.584 109.128 21.584 108.552 20.928C107.976 20.272 107.216 19.944 106.272 19.944C105.328 19.944 104.568 20.272 103.992 20.928C103.416 21.584 103.128 22.584 103.128 23.928C103.128 25.272 103.408 26.28 103.968 26.952C104.544 27.608 105.312 27.936 106.272 27.936ZM115.635 30V12.336H118.635V30H115.635ZM127.509 35.376C126.389 35.376 125.373 35.256 124.461 35.016C123.565 34.776 122.765 34.408 122.061 33.912L122.709 31.752C123.173 32.056 123.653 32.304 124.149 32.496C124.645 32.688 125.157 32.832 125.685 32.928C126.213 33.024 126.749 33.072 127.293 33.072C128.413 33.072 129.245 32.792 129.789 32.232C130.349 31.688 130.629 30.904 130.629 29.88V26.976H130.869C130.613 27.808 130.093 28.472 129.309 28.968C128.541 29.464 127.653 29.712 126.645 29.712C125.557 29.712 124.605 29.472 123.789 28.992C122.989 28.496 122.365 27.792 121.917 26.88C121.469 25.968 121.245 24.896 121.245 23.664C121.245 22.432 121.469 21.368 121.917 20.472C122.365 19.56 122.989 18.864 123.789 18.384C124.605 17.888 125.557 17.64 126.645 17.64C127.669 17.64 128.557 17.888 129.309 18.384C130.077 18.864 130.589 19.52 130.845 20.352L130.629 20.208L130.869 17.88H133.773C133.709 18.376 133.661 18.88 133.629 19.392C133.597 19.904 133.581 20.408 133.581 20.904V29.52C133.581 31.424 133.061 32.872 132.021 33.864C130.997 34.872 129.493 35.376 127.509 35.376ZM127.461 27.408C128.421 27.408 129.181 27.088 129.741 26.448C130.317 25.792 130.605 24.864 130.605 23.664C130.605 22.464 130.317 21.544 129.741 20.904C129.181 20.264 128.421 19.944 127.461 19.944C126.485 19.944 125.709 20.264 125.133 20.904C124.557 21.544 124.269 22.464 124.269 23.664C124.269 24.864 124.557 25.792 125.133 26.448C125.709 27.088 126.485 27.408 127.461 27.408ZM141.503 30.24C140.447 30.24 139.519 29.992 138.719 29.496C137.919 28.984 137.295 28.256 136.847 27.312C136.399 26.368 136.175 25.24 136.175 23.928C136.175 22.616 136.399 21.496 136.847 20.568C137.295 19.624 137.919 18.904 138.719 18.408C139.519 17.896 140.447 17.64 141.503 17.64C142.527 17.64 143.423 17.896 144.191 18.408C144.975 18.904 145.495 19.576 145.751 20.424H145.487L145.751 17.88H148.631C148.583 18.376 148.535 18.88 148.487 19.392C148.455 19.904 148.439 20.408 148.439 20.904V30H145.463L145.439 27.504H145.727C145.471 28.336 144.951 29 144.167 29.496C143.383 29.992 142.495 30.24 141.503 30.24ZM142.343 27.936C143.287 27.936 144.047 27.608 144.623 26.952C145.199 26.28 145.487 25.272 145.487 23.928C145.487 22.584 145.199 21.584 144.623 20.928C144.047 20.272 143.287 19.944 142.343 19.944C141.399 19.944 140.639 20.272 140.063 20.928C139.487 21.584 139.199 22.584 139.199 23.928C139.199 25.272 139.479 26.28 140.039 26.952C140.615 27.608 141.383 27.936 142.343 27.936ZM151.682 30V20.976C151.682 20.464 151.666 19.944 151.634 19.416C151.618 18.888 151.578 18.376 151.514 17.88H154.418L154.754 21.192H154.274C154.434 20.392 154.698 19.728 155.066 19.2C155.45 18.672 155.914 18.28 156.458 18.024C157.002 17.768 157.594 17.64 158.234 17.64C158.522 17.64 158.754 17.656 158.93 17.688C159.106 17.704 159.282 17.744 159.458 17.808L159.434 20.448C159.13 20.32 158.866 20.24 158.642 20.208C158.434 20.176 158.17 20.16 157.85 20.16C157.162 20.16 156.578 20.304 156.098 20.592C155.634 20.88 155.282 21.28 155.042 21.792C154.818 22.304 154.706 22.888 154.706 23.544V30H151.682Z" fill="white"/>
<ellipse cx="21.2477" cy="20.5" rx="20.2594" ry="20.5" fill="white"/>
<path d="M20.1797 31V15.426H14.1217V12.67H29.5917V15.426H23.5337V31H20.1797Z" fill="#5B9BF3"/>
</svg>
